<?xml version="1.0" encoding="utf-8"?>
<!-- Generator: Adobe Illustrator 21.0.0, SVG Export Plug-In . SVG Version: 6.00 Build 0)  -->
<svg version="1.1" id="Layer_1" xmlns="http://www.w3.org/2000/svg" xmlns:xlink="http://www.w3.org/1999/xlink" x="0px" y="0px"
	 viewBox="0 0 1024 1024" style="enable-background:new 0 0 1024 1024;" xml:space="preserve">
<style type="text/css">
	.st0{font-family:'MyriadPro-Regular';}
	.st1{font-size:12px;}
	.st2{fill:#FFFFFF;}
	.st3{fill:url(#SVGID_1_);}
	.st4{fill:#008EF4;}
</style>
<text transform="matrix(1 0 0 1 1024 1024)" class="st0 st1">1334</text>
<g>
	<path class="st2" d="M399.2,322.4c15.7,0.1,32,1.3,48.1,4.6c32,6.5,60.4,20.5,84.1,43.1c15.3,14.6,26.2,32.1,32.4,52.3
		c2.1,6.9,3.4,14,3.7,21.3c0.1,3.9-0.9,7.4-3.6,10.3c-2.6,2.8-5.8,4.3-9.5,4.4c-2.8,0.1-5.7,0-8.5,0c-8.5,0-17,0-25.5,0
		c-9.6,0-16.4-5.8-18.1-15.2c-2.6-14.9-9.8-27.3-20.9-37.4c-11.7-10.7-25.4-17.9-40.6-22.3c-11.8-3.5-23.9-5.1-36.2-5.5
		c-8.6-0.2-17.3-0.1-25.9,0.8c-15.7,1.6-31,5-45.2,12.3c-5.4,2.8-10.5,6-15.1,10c-9.8,8.5-15.9,19.2-18.5,31.8
		c-2.5,12.2-2.3,24.3,1.2,36.3c2.3,7.8,6.3,14.6,11.8,20.6c5.4,5.8,11.7,10.5,18.4,14.6c8.8,5.4,18.2,9.6,27.8,13.4
		c18.4,7.3,37.3,13.4,56.2,19.2c15.4,4.7,30.8,9.2,46.2,14c17.1,5.4,33.8,11.7,50,19.3c12.5,5.9,24.4,12.8,35,21.8
		c10.8,9.2,19.7,19.9,25.7,33c4.1,9,6.6,18.4,8,28.1c1.8,12.3,2,24.6,0.8,37c-3.6,35.3-19.7,63.5-48.6,84.3
		c-15.5,11.2-32.6,19.1-50.9,24.5c-12.5,3.7-25.2,6.2-38.1,7.9c-19.9,2.6-39.8,3-59.8,2c-21.4-1.1-42.5-4.5-62.9-11.3
		c-17.9-6-34.8-14.2-50.1-25.3c-18.3-13.3-32.3-30.1-41.5-50.9c-5.1-11.7-7.8-23.9-8.6-36.6c-0.5-7.4,5.2-14,12.9-14.7
		c1-0.1,2.1-0.1,3.1-0.1c9.9,0,19.8,0.2,29.8-0.1c11.5-0.3,16.5,6.9,18.8,14.4c0.7,2.3,1.3,4.7,2,7c3.7,11,9.9,20.3,17.9,28.6
		c13.7,14.2,30.3,23.3,49.4,28c10.7,2.6,21.5,4.1,32.4,4.8c11.9,0.8,23.7,0.6,35.5-0.2c15.6-1.1,30.9-3.6,45.7-9.1
		c9.9-3.7,18.9-8.7,26.8-15.8c13-11.6,20-26.2,21.5-43.5c0.7-7.8,0.3-15.4-1.5-23c-2.2-8.8-6.5-16.5-12.8-23
		c-4.9-5-10.4-9.3-16.3-13c-9-5.7-18.5-10.1-28.4-13.9c-18.7-7.3-37.8-13.5-57-19.4c-15.1-4.7-30.3-9.1-45.4-13.9
		c-18.3-5.8-36.2-12.7-53.3-21.4c-12.2-6.2-23.7-13.6-33.8-22.9c-17.1-15.7-27.8-34.9-31.6-57.9c-1.9-11.5-2.7-23-1.9-34.6
		c2.4-34.8,17.7-62.7,45.2-84.1c14.5-11.3,30.8-19.2,48.2-24.8c12-3.9,24.4-6.5,36.9-8C375.9,323.2,387.2,322.5,399.2,322.4z"/>
	<path class="st2" d="M670.8,567.1c0-72.7,0-145.3,0-218c0-1.8,0-3.6,0.1-5.4c0.4-6.8,5.5-13.6,14-13.7c0.8,0,1.5,0,2.3,0
		c10.6,0,21.1,0,31.7,0c2.4,0,4.9,0.1,7.3,0.8c4.8,1.6,7.8,4.9,8.9,9.8c0.5,2.4,0.6,4.9,0.6,7.3c0,28.5,0,56.9,0,85.4
		c0,117.2,0,234.5,0,351.7c0,2.2-0.1,4.4-0.3,6.5c-0.9,7.1-7.3,12.4-14,12.6c-0.1,0-0.3,0-0.4,0c-12,0-24,0-35.9,0
		c-8.4,0-13.6-6.7-14.1-13.6c-0.1-1.9-0.1-3.9-0.1-5.8C670.8,712.1,670.8,639.6,670.8,567.1z"/>
	<path class="st2" d="M559.4,139.2c3,0,5.4,0,7.8,0c0.9,0,1.8,0,2.7,0.1c1.5,0.1,2.5,1,2.6,2.4c0.1,1.5,0.2,3.1,0,4.6
		c-0.1,1.6-1.1,2.5-2.7,2.7c-1.3,0.1-2.6,0.1-3.9,0.1c-2,0-4.1,0.1-6.3,0.1c-0.1,0.9-0.3,1.7-0.3,2.4c0,3.6,0,7.2,0,10.8
		c0,0.9,0,1.8,0,2.7c-0.2,2.9-0.8,3.5-3.8,3.6c-1,0-2.1,0-3.1,0c-3.1-0.1-3.7-0.7-3.8-3.9c0-0.8,0-1.5,0-2.3c0-3.2,0-6.4,0-9.7
		c0-1-0.1-2-0.1-3c-1.3-1-2.6-0.6-3.8-0.6c-10.3,0-20.6,0-30.9,0c-1.2,0-2.3,0-3.5-0.1c-1.4-0.2-2.3-1.1-2.4-2.6
		c-0.3-3.4,0.1-6.5,2.3-9.4c11.1-15.3,22-30.8,33-46.1c0.4-0.6,0.9-1.3,1.4-1.8c0.8-0.9,1.8-1.5,3-1.6c3.1-0.1,6.2-0.1,9.3,0
		c1.4,0,2.2,0.7,2.3,2.1c0.2,1.3,0.2,2.6,0.2,3.8c0,13.8,0,27.5,0,41.3C559.3,135.9,559.3,137.3,559.4,139.2z M521.4,139
		c8.8,0,17.3,0,25.8,0c0.3,0,0.7-0.3,1-0.4c0.5-3.5,0.7-20.4,0.4-37c0-0.6,0.2-1.3-0.6-1.9c-0.3,0.3-0.7,0.5-1,0.9
		C538.8,111.6,522.6,135.9,521.4,139z"/>
	<path class="st2" d="M483.8,100.5c-3,2.3-5.2,4-7.4,5.7c-3.4,2.6-6.7,5.2-10.1,7.8c-0.7,0.6-1.4,1.1-2.2,1.6
		c-0.9,0.5-1.8,0.5-2.5-0.3c-1.3-1.5-2.4-3-3.5-4.6c-0.7-1-0.4-2,0.4-2.8c0.5-0.6,1.1-1,1.8-1.5c7.3-5.7,14.6-11.4,21.8-17.2
		c1.8-1.5,3.7-2.2,6-2c1.4,0.1,2.8,0,4.2,0.1c1.4,0.1,2.1,0.9,2.3,2.2c0.1,0.9,0.1,1.8,0.1,2.7c0,23.8,0,47.7,0,71.5
		c0,4.6-0.3,4.9-5.1,4.9c-0.9,0-1.8,0-2.7,0c-1.9-0.1-2.7-0.9-2.9-2.9c-0.1-1,0-2.1,0-3.1c0-19.1,0-38.1,0-57.2
		C483.9,104.1,483.9,102.7,483.8,100.5z"/>
	<g>
		
			<linearGradient id="SVGID_1_" gradientUnits="userSpaceOnUse" x1="162.83" y1="866.8456" x2="867.726" y2="161.9498" gradientTransform="matrix(1 0 0 -1 0 1026)">
			<stop  offset="0" style="stop-color:#029CF8"/>
			<stop  offset="1" style="stop-color:#0157E3"/>
		</linearGradient>
		<path class="st3" d="M517.1,1023.6c-1.3,0-2.6,0-3.9,0c-1.6-0.3-3.3-0.6-4.9-0.8c-6.3-0.7-12.5-1.3-18.7-2.6
			c-13.2-2.9-25.5-7.9-37.2-14.7c-96.5-55.7-193.1-111.4-289.7-167.1c-16.2-9.3-32.4-18.5-48.4-28.1c-33.7-20.2-54.9-55.6-58-92.8
			c-0.1-1.7-0.4-3.3-1.4-4.7c0-134.3,0-268.5,0-402.8c1.1-1.3,1.3-2.8,1.4-4.3c0.1-1.3,0.2-2.6,0.3-3.8c2.2-16.8,7.4-32.6,16.1-47.2
			c10.9-18.3,25.6-32.8,44-43.5c17.3-10,34.6-19.9,51.8-29.9c55-31.7,109.9-63.4,164.9-95.1c40.2-23.2,80.5-46.4,120.7-69.6
			C469.8,7.5,486.7,2,504.8,0.7c1-0.1,2-0.4,3-0.6c4.9,0,9.8,0,14.7,0c1.1,0.2,2.2,0.6,3.4,0.6c4.9,0.2,9.7,1.1,14.5,2.1
			c13.5,2.8,26,8.1,37.9,15c88.4,51.1,176.9,102,265.3,153.1c23.8,13.7,47.6,27.2,71.2,41.2c26.6,15.7,44.6,38.5,54.2,67.9
			c3.3,10.2,5.3,20.7,5.2,31.5c0,2.8,0,5.7,0,8.5c0,127.8,0,255.6,0,383.4c0,4.3,0,8.5-0.2,12.8c-0.2,3.5-0.4,7-1,10.4
			c-4,23.2-13.7,43.6-29.3,61.2c-9.3,10.5-20.4,18.8-32.5,25.8c-100.1,57.3-200.1,115-300.2,172.7c-12.4,7.1-24.7,14.4-37.2,21.3
			c-14.5,8.1-30,12.9-46.5,14.5C523.9,1022.5,520.5,1023.1,517.1,1023.6z M399.2,322.4c-12,0.1-23.3,0.8-34.6,2.2
			c-12.6,1.6-24.9,4.1-36.9,8c-17.4,5.6-33.7,13.5-48.2,24.8c-27.4,21.3-42.7,49.3-45.2,84.1c-0.8,11.6,0,23.2,1.9,34.6
			c3.8,23,14.5,42.2,31.6,57.9c10.2,9.3,21.6,16.7,33.8,22.9c17.1,8.7,35,15.6,53.3,21.4c15.1,4.8,30.3,9.2,45.4,13.9
			c19.2,5.9,38.3,12.1,57,19.4c9.9,3.8,19.4,8.2,28.4,13.9c5.9,3.7,11.4,8,16.3,13c6.3,6.5,10.6,14.2,12.8,23
			c1.9,7.6,2.2,15.3,1.5,23c-1.5,17.3-8.5,31.9-21.5,43.5c-7.9,7-16.9,12.1-26.8,15.8c-14.7,5.5-30.1,8-45.7,9.1
			c-11.8,0.8-23.7,1-35.5,0.2c-11-0.7-21.8-2.2-32.4-4.8c-19.1-4.7-35.7-13.8-49.4-28c-8-8.3-14.2-17.6-17.9-28.6
			c-0.8-2.3-1.3-4.7-2-7c-2.3-7.6-7.3-14.8-18.8-14.4c-9.9,0.3-19.8,0.1-29.8,0.1c-1,0-2.1,0-3.1,0.1c-7.7,0.7-13.3,7.3-12.9,14.7
			c0.8,12.7,3.5,25,8.6,36.6c9.1,20.8,23.1,37.6,41.5,50.9c15.4,11.1,32.2,19.3,50.1,25.3c20.4,6.8,41.5,10.2,62.9,11.3
			c20,1,39.9,0.6,59.8-2c12.9-1.7,25.7-4.2,38.1-7.9c18.3-5.5,35.4-13.3,50.9-24.5c28.9-20.8,44.9-49,48.6-84.3
			c1.3-12.4,1-24.7-0.8-37c-1.4-9.7-3.9-19.2-8-28.1c-5.9-13-14.8-23.8-25.7-33c-10.6-9-22.5-15.9-35-21.8
			c-16.2-7.6-33-13.9-50-19.3c-15.3-4.9-30.8-9.3-46.2-14c-19-5.8-37.8-11.9-56.2-19.2c-9.6-3.8-19-8-27.8-13.4
			c-6.7-4.1-13-8.9-18.4-14.6c-5.6-5.9-9.5-12.8-11.8-20.6c-3.5-12-3.7-24.1-1.2-36.3c2.6-12.6,8.7-23.3,18.5-31.8
			c4.6-4,9.7-7.3,15.1-10c14.2-7.3,29.4-10.7,45.2-12.3c8.6-0.9,17.2-1,25.9-0.8c12.3,0.3,24.4,2,36.2,5.5
			c15.2,4.5,28.9,11.6,40.6,22.3c11.1,10.1,18.3,22.5,20.9,37.4c1.6,9.4,8.5,15.1,18.1,15.2c8.5,0,17,0,25.5,0c2.8,0,5.7,0.1,8.5,0
			c3.8-0.1,7-1.7,9.5-4.4c2.7-2.9,3.7-6.4,3.6-10.3c-0.3-7.3-1.6-14.3-3.7-21.3c-6.3-20.2-17.1-37.7-32.4-52.3
			c-23.7-22.6-52-36.6-84.1-43.1C431.2,323.7,414.9,322.5,399.2,322.4z M670.8,567.1c0,72.5,0,145.1,0,217.6c0,1.9,0,3.9,0.1,5.8
			c0.4,6.9,5.7,13.6,14.1,13.6c12,0,24,0,35.9,0c0.1,0,0.3,0,0.4,0c6.8-0.2,13.1-5.5,14-12.6c0.3-2.2,0.3-4.4,0.3-6.5
			c0-117.2,0-234.5,0-351.7c0-28.5,0-56.9,0-85.4c0-2.4-0.1-4.9-0.6-7.3c-1-4.9-4-8.2-8.9-9.8c-2.4-0.8-4.8-0.8-7.3-0.8
			c-10.6,0-21.1,0-31.7,0c-0.8,0-1.5,0-2.3,0c-8.5,0.1-13.6,6.9-14,13.7c-0.1,1.8-0.1,3.6-0.1,5.4
			C670.8,421.8,670.8,494.4,670.8,567.1z M559.4,139.2c0-1.9-0.1-3.2-0.1-4.6c0-13.8,0-27.5,0-41.3c0-1.3,0-2.6-0.2-3.8
			c-0.2-1.4-0.9-2.1-2.3-2.1c-3.1-0.1-6.2,0-9.3,0c-1.2,0-2.2,0.6-3,1.6c-0.5,0.6-0.9,1.2-1.4,1.8c-11,15.4-21.9,30.8-33,46.1
			c-2.2,3-2.6,6.1-2.3,9.4c0.1,1.5,0.9,2.4,2.4,2.6c1.1,0.2,2.3,0.1,3.5,0.1c10.3,0,20.6,0,30.9,0c1.2,0,2.6-0.3,3.8,0.6
			c0,1,0.1,2,0.1,3c0,3.2,0,6.4,0,9.7c0,0.8,0,1.5,0,2.3c0.1,3.3,0.6,3.9,3.8,3.9c1,0,2.1,0,3.1,0c3-0.1,3.7-0.7,3.8-3.6
			c0.1-0.9,0-1.8,0-2.7c0-3.6,0-7.2,0-10.8c0-0.7,0.2-1.4,0.3-2.4c2.3,0,4.3-0.1,6.3-0.1c1.3,0,2.6,0,3.9-0.1
			c1.7-0.2,2.6-1.1,2.7-2.7c0.1-1.5,0.1-3.1,0-4.6c-0.1-1.4-1.1-2.3-2.6-2.4c-0.9-0.1-1.8-0.1-2.7-0.1
			C564.8,139.2,562.4,139.2,559.4,139.2z M483.8,100.5c0.1,2.2,0.1,3.6,0.1,4.9c0,19.1,0,38.1,0,57.2c0,1,0,2.1,0,3.1
			c0.2,2,1,2.8,2.9,2.9c0.9,0.1,1.8,0,2.7,0c4.8,0,5.1-0.3,5.1-4.9c0-23.8,0-47.7,0-71.5c0-0.9,0-1.8-0.1-2.7
			c-0.2-1.3-0.9-2.1-2.3-2.2s-2.8,0-4.2-0.1c-2.3-0.1-4.2,0.6-6,2c-7.2,5.8-14.6,11.5-21.8,17.2c-0.6,0.5-1.2,0.9-1.8,1.5
			c-0.8,0.8-1.1,1.8-0.4,2.8c1.1,1.6,2.3,3.1,3.5,4.6c0.6,0.7,1.6,0.8,2.5,0.3c0.8-0.5,1.5-1,2.2-1.6c3.4-2.6,6.7-5.2,10.1-7.8
			C478.6,104.5,480.8,102.8,483.8,100.5z"/>
		<path class="st4" d="M521.4,139c1.2-3.2,17.3-27.4,25.5-38.5c0.3-0.4,0.7-0.6,1-0.9c0.9,0.6,0.6,1.3,0.6,1.9
			c0.3,16.7,0.2,33.6-0.4,37c-0.3,0.1-0.6,0.4-1,0.4C538.7,139,530.3,139,521.4,139z"/>
	</g>
</g>
</svg>
