<?xml version="1.0" encoding="utf-8"?>
<!-- Generator: Adobe Illustrator 21.0.0, SVG Export Plug-In . SVG Version: 6.00 Build 0)  -->
<svg version="1.1" id="Layer_1" xmlns="http://www.w3.org/2000/svg" xmlns:xlink="http://www.w3.org/1999/xlink" x="0px" y="0px"
	 viewBox="0 0 150 58" style="enable-background:new 0 0 150 58;" xml:space="preserve">
<style type="text/css">
	.st0{fill:#FFFFFF;}
	.st1{fill:url(#SVGID_1_);}
	.st2{fill:#008EF4;}
</style>
<g>
	<path class="st0" d="M68.5,18.4c0.9,0,1.8,0.1,2.7,0.3c1.8,0.4,3.4,1.2,4.7,2.4c0.9,0.8,1.5,1.8,1.8,2.9c0.1,0.4,0.2,0.8,0.2,1.2
		c0,0.2-0.1,0.4-0.2,0.6c-0.1,0.2-0.3,0.2-0.5,0.2c-0.2,0-0.3,0-0.5,0c-0.5,0-1,0-1.4,0c-0.5,0-0.9-0.3-1-0.9
		c-0.1-0.8-0.6-1.5-1.2-2.1c-0.7-0.6-1.4-1-2.3-1.3c-0.7-0.2-1.3-0.3-2-0.3c-0.5,0-1,0-1.5,0c-0.9,0.1-1.7,0.3-2.5,0.7
		c-0.3,0.2-0.6,0.3-0.8,0.6c-0.6,0.5-0.9,1.1-1,1.8c-0.1,0.7-0.1,1.4,0.1,2c0.1,0.4,0.4,0.8,0.7,1.2c0.3,0.3,0.7,0.6,1,0.8
		c0.5,0.3,1,0.5,1.6,0.8c1,0.4,2.1,0.8,3.2,1.1c0.9,0.3,1.7,0.5,2.6,0.8c1,0.3,1.9,0.7,2.8,1.1c0.7,0.3,1.4,0.7,2,1.2
		c0.6,0.5,1.1,1.1,1.4,1.9c0.2,0.5,0.4,1,0.4,1.6c0.1,0.7,0.1,1.4,0,2.1c-0.2,2-1.1,3.6-2.7,4.7c-0.9,0.6-1.8,1.1-2.9,1.4
		c-0.7,0.2-1.4,0.3-2.1,0.4c-1.1,0.1-2.2,0.2-3.4,0.1c-1.2-0.1-2.4-0.3-3.5-0.6c-1-0.3-2-0.8-2.8-1.4c-1-0.7-1.8-1.7-2.3-2.9
		c-0.3-0.7-0.4-1.3-0.5-2.1c0-0.4,0.3-0.8,0.7-0.8c0.1,0,0.1,0,0.2,0c0.6,0,1.1,0,1.7,0c0.6,0,0.9,0.4,1.1,0.8
		c0,0.1,0.1,0.3,0.1,0.4c0.2,0.6,0.6,1.1,1,1.6c0.8,0.8,1.7,1.3,2.8,1.6c0.6,0.1,1.2,0.2,1.8,0.3c0.7,0,1.3,0,2,0
		c0.9-0.1,1.7-0.2,2.6-0.5c0.6-0.2,1.1-0.5,1.5-0.9c0.7-0.7,1.1-1.5,1.2-2.4c0-0.4,0-0.9-0.1-1.3c-0.1-0.5-0.4-0.9-0.7-1.3
		c-0.3-0.3-0.6-0.5-0.9-0.7c-0.5-0.3-1-0.6-1.6-0.8c-1.1-0.4-2.1-0.8-3.2-1.1c-0.8-0.3-1.7-0.5-2.5-0.8c-1-0.3-2-0.7-3-1.2
		c-0.7-0.3-1.3-0.8-1.9-1.3c-1-0.9-1.6-2-1.8-3.3c-0.1-0.6-0.2-1.3-0.1-1.9c0.1-2,1-3.5,2.5-4.7c0.8-0.6,1.7-1.1,2.7-1.4
		c0.7-0.2,1.4-0.4,2.1-0.4C67.2,18.4,67.8,18.4,68.5,18.4z"/>
	<path class="st0" d="M83.8,32.1c0-4.1,0-8.2,0-12.2c0-0.1,0-0.2,0-0.3c0-0.4,0.3-0.8,0.8-0.8c0,0,0.1,0,0.1,0c0.6,0,1.2,0,1.8,0
		c0.1,0,0.3,0,0.4,0c0.3,0.1,0.4,0.3,0.5,0.6c0,0.1,0,0.3,0,0.4c0,1.6,0,3.2,0,4.8c0,6.6,0,13.2,0,19.7c0,0.1,0,0.2,0,0.4
		c-0.1,0.4-0.4,0.7-0.8,0.7c0,0,0,0,0,0c-0.7,0-1.3,0-2,0c-0.5,0-0.8-0.4-0.8-0.8c0-0.1,0-0.2,0-0.3C83.8,40.2,83.8,36.2,83.8,32.1z
		"/>
	<path class="st0" d="M77.5,8.1c0.2,0,0.3,0,0.4,0c0.1,0,0.1,0,0.2,0c0.1,0,0.1,0.1,0.1,0.1c0,0.1,0,0.2,0,0.3
		c0,0.1-0.1,0.1-0.2,0.2c-0.1,0-0.1,0-0.2,0c-0.1,0-0.2,0-0.4,0c0,0.1,0,0.1,0,0.1c0,0.2,0,0.4,0,0.6c0,0.1,0,0.1,0,0.2
		c0,0.2,0,0.2-0.2,0.2c-0.1,0-0.1,0-0.2,0c-0.2,0-0.2,0-0.2-0.2c0,0,0-0.1,0-0.1c0-0.2,0-0.4,0-0.5c0-0.1,0-0.1,0-0.2
		c-0.1-0.1-0.1,0-0.2,0c-0.6,0-1.2,0-1.7,0c-0.1,0-0.1,0-0.2,0c-0.1,0-0.1-0.1-0.1-0.1c0-0.2,0-0.4,0.1-0.5c0.6-0.9,1.2-1.7,1.9-2.6
		c0,0,0.1-0.1,0.1-0.1c0-0.1,0.1-0.1,0.2-0.1c0.2,0,0.3,0,0.5,0c0.1,0,0.1,0,0.1,0.1c0,0.1,0,0.1,0,0.2c0,0.8,0,1.5,0,2.3
		C77.5,7.9,77.5,8,77.5,8.1z M75.4,8.1c0.5,0,1,0,1.4,0c0,0,0,0,0.1,0c0-0.2,0-1.1,0-2.1c0,0,0-0.1,0-0.1c0,0,0,0-0.1,0.1
		C76.4,6.5,75.5,7.9,75.4,8.1z"/>
	<path class="st0" d="M73.3,5.9C73.1,6,73,6.1,72.9,6.2c-0.2,0.1-0.4,0.3-0.6,0.4c0,0-0.1,0.1-0.1,0.1c-0.1,0-0.1,0-0.1,0
		c-0.1-0.1-0.1-0.2-0.2-0.3c0-0.1,0-0.1,0-0.2c0,0,0.1-0.1,0.1-0.1c0.4-0.3,0.8-0.6,1.2-1c0.1-0.1,0.2-0.1,0.3-0.1
		c0.1,0,0.2,0,0.2,0c0.1,0,0.1,0.1,0.1,0.1c0,0.1,0,0.1,0,0.2c0,1.3,0,2.7,0,4c0,0.3,0,0.3-0.3,0.3c-0.1,0-0.1,0-0.2,0
		c-0.1,0-0.2-0.1-0.2-0.2c0-0.1,0-0.1,0-0.2c0-1.1,0-2.1,0-3.2C73.3,6.1,73.3,6,73.3,5.9z"/>
	<g>
		
			<linearGradient id="SVGID_1_" gradientUnits="userSpaceOnUse" x1="55.2496" y1="50.8051" x2="94.8319" y2="11.2227" gradientTransform="matrix(1 0 0 -1 0 60)">
			<stop  offset="0" style="stop-color:#029CF8"/>
			<stop  offset="1" style="stop-color:#0157E3"/>
		</linearGradient>
		<path class="st1" d="M75.1,57.7c-0.1,0-0.1,0-0.2,0c-0.1,0-0.2,0-0.3,0c-0.4,0-0.7-0.1-1.1-0.1c-0.7-0.2-1.4-0.4-2.1-0.8
			c-5.4-3.1-10.8-6.3-16.3-9.4c-0.9-0.5-1.8-1-2.7-1.6c-1.9-1.1-3.1-3.1-3.3-5.2c0-0.1,0-0.2-0.1-0.3c0-7.5,0-15.1,0-22.6
			c0.1-0.1,0.1-0.2,0.1-0.2c0-0.1,0-0.1,0-0.2c0.1-0.9,0.4-1.8,0.9-2.7c0.6-1,1.4-1.8,2.5-2.4c1-0.6,1.9-1.1,2.9-1.7
			c3.1-1.8,6.2-3.6,9.3-5.3c2.3-1.3,4.5-2.6,6.8-3.9c0.9-0.5,1.8-0.8,2.8-0.9c0.1,0,0.1,0,0.2,0c0.3,0,0.6,0,0.8,0
			c0.1,0,0.1,0,0.2,0c0.3,0,0.5,0.1,0.8,0.1c0.8,0.2,1.5,0.5,2.1,0.8c5,2.9,9.9,5.7,14.9,8.6c1.3,0.8,2.7,1.5,4,2.3
			c1.5,0.9,2.5,2.2,3,3.8c0.2,0.6,0.3,1.2,0.3,1.8c0,0.2,0,0.3,0,0.5c0,7.2,0,14.4,0,21.5c0,0.2,0,0.5,0,0.7c0,0.2,0,0.4-0.1,0.6
			c-0.2,1.3-0.8,2.4-1.6,3.4c-0.5,0.6-1.1,1.1-1.8,1.4c-5.6,3.2-11.2,6.5-16.9,9.7c-0.7,0.4-1.4,0.8-2.1,1.2
			c-0.8,0.5-1.7,0.7-2.6,0.8C75.5,57.7,75.3,57.7,75.1,57.7z M68.5,18.4c-0.7,0-1.3,0-1.9,0.1c-0.7,0.1-1.4,0.2-2.1,0.4
			c-1,0.3-1.9,0.8-2.7,1.4c-1.5,1.2-2.4,2.8-2.5,4.7c0,0.7,0,1.3,0.1,1.9c0.2,1.3,0.8,2.4,1.8,3.3c0.6,0.5,1.2,0.9,1.9,1.3
			c1,0.5,2,0.9,3,1.2c0.8,0.3,1.7,0.5,2.5,0.8c1.1,0.3,2.2,0.7,3.2,1.1c0.6,0.2,1.1,0.5,1.6,0.8c0.3,0.2,0.6,0.4,0.9,0.7
			c0.4,0.4,0.6,0.8,0.7,1.3c0.1,0.4,0.1,0.9,0.1,1.3c-0.1,1-0.5,1.8-1.2,2.4c-0.4,0.4-0.9,0.7-1.5,0.9c-0.8,0.3-1.7,0.4-2.6,0.5
			c-0.7,0-1.3,0.1-2,0c-0.6,0-1.2-0.1-1.8-0.3c-1.1-0.3-2-0.8-2.8-1.6c-0.4-0.5-0.8-1-1-1.6c0-0.1-0.1-0.3-0.1-0.4
			c-0.1-0.4-0.4-0.8-1.1-0.8c-0.6,0-1.1,0-1.7,0c-0.1,0-0.1,0-0.2,0c-0.4,0-0.7,0.4-0.7,0.8c0,0.7,0.2,1.4,0.5,2.1
			c0.5,1.2,1.3,2.1,2.3,2.9c0.9,0.6,1.8,1.1,2.8,1.4c1.1,0.4,2.3,0.6,3.5,0.6c1.1,0.1,2.2,0,3.4-0.1c0.7-0.1,1.4-0.2,2.1-0.4
			c1-0.3,2-0.7,2.9-1.4c1.6-1.2,2.5-2.8,2.7-4.7c0.1-0.7,0.1-1.4,0-2.1c-0.1-0.5-0.2-1.1-0.4-1.6c-0.3-0.7-0.8-1.3-1.4-1.9
			c-0.6-0.5-1.3-0.9-2-1.2c-0.9-0.4-1.9-0.8-2.8-1.1c-0.9-0.3-1.7-0.5-2.6-0.8c-1.1-0.3-2.1-0.7-3.2-1.1c-0.5-0.2-1.1-0.4-1.6-0.8
			c-0.4-0.2-0.7-0.5-1-0.8c-0.3-0.3-0.5-0.7-0.7-1.2c-0.2-0.7-0.2-1.4-0.1-2c0.1-0.7,0.5-1.3,1-1.8c0.3-0.2,0.5-0.4,0.8-0.6
			c0.8-0.4,1.7-0.6,2.5-0.7c0.5-0.1,1-0.1,1.5,0c0.7,0,1.4,0.1,2,0.3c0.9,0.3,1.6,0.7,2.3,1.3c0.6,0.6,1,1.3,1.2,2.1
			c0.1,0.5,0.5,0.8,1,0.9c0.5,0,1,0,1.4,0c0.2,0,0.3,0,0.5,0c0.2,0,0.4-0.1,0.5-0.2c0.2-0.2,0.2-0.4,0.2-0.6c0-0.4-0.1-0.8-0.2-1.2
			c-0.4-1.1-1-2.1-1.8-2.9c-1.3-1.3-2.9-2.1-4.7-2.4C70.3,18.4,69.4,18.4,68.5,18.4z M83.8,32.1c0,4.1,0,8.1,0,12.2
			c0,0.1,0,0.2,0,0.3c0,0.4,0.3,0.8,0.8,0.8c0.7,0,1.3,0,2,0c0,0,0,0,0,0c0.4,0,0.7-0.3,0.8-0.7c0-0.1,0-0.2,0-0.4
			c0-6.6,0-13.2,0-19.7c0-1.6,0-3.2,0-4.8c0-0.1,0-0.3,0-0.4c-0.1-0.3-0.2-0.5-0.5-0.6c-0.1,0-0.3,0-0.4,0c-0.6,0-1.2,0-1.8,0
			c0,0-0.1,0-0.1,0c-0.5,0-0.8,0.4-0.8,0.8c0,0.1,0,0.2,0,0.3C83.8,23.9,83.8,28,83.8,32.1z M77.5,8.1c0-0.1,0-0.2,0-0.3
			c0-0.8,0-1.5,0-2.3c0-0.1,0-0.1,0-0.2c0-0.1-0.1-0.1-0.1-0.1c-0.2,0-0.3,0-0.5,0c-0.1,0-0.1,0-0.2,0.1c0,0-0.1,0.1-0.1,0.1
			c-0.6,0.9-1.2,1.7-1.9,2.6c-0.1,0.2-0.1,0.3-0.1,0.5c0,0.1,0.1,0.1,0.1,0.1c0.1,0,0.1,0,0.2,0c0.6,0,1.2,0,1.7,0
			c0.1,0,0.1,0,0.2,0c0,0.1,0,0.1,0,0.2c0,0.2,0,0.4,0,0.5c0,0,0,0.1,0,0.1c0,0.2,0,0.2,0.2,0.2c0.1,0,0.1,0,0.2,0
			c0.2,0,0.2,0,0.2-0.2c0-0.1,0-0.1,0-0.2c0-0.2,0-0.4,0-0.6c0,0,0-0.1,0-0.1c0.1,0,0.2,0,0.4,0c0.1,0,0.1,0,0.2,0
			c0.1,0,0.1-0.1,0.2-0.2c0-0.1,0-0.2,0-0.3c0-0.1-0.1-0.1-0.1-0.1c-0.1,0-0.1,0-0.2,0C77.8,8.1,77.7,8.1,77.5,8.1z M73.3,5.9
			c0,0.1,0,0.2,0,0.3c0,1.1,0,2.1,0,3.2c0,0.1,0,0.1,0,0.2c0,0.1,0.1,0.2,0.2,0.2c0.1,0,0.1,0,0.2,0c0.3,0,0.3,0,0.3-0.3
			c0-1.3,0-2.7,0-4c0-0.1,0-0.1,0-0.2c0-0.1-0.1-0.1-0.1-0.1s-0.2,0-0.2,0c-0.1,0-0.2,0-0.3,0.1c-0.4,0.3-0.8,0.6-1.2,1
			c0,0-0.1,0.1-0.1,0.1c0,0-0.1,0.1,0,0.2C71.9,6.6,72,6.6,72,6.7c0,0,0.1,0,0.1,0c0,0,0.1-0.1,0.1-0.1c0.2-0.1,0.4-0.3,0.6-0.4
			C73,6.1,73.1,6,73.3,5.9z"/>
		<path class="st2" d="M75.4,8.1c0.1-0.2,1-1.5,1.4-2.2c0,0,0,0,0.1-0.1c0.1,0,0,0.1,0,0.1c0,0.9,0,1.9,0,2.1c0,0,0,0-0.1,0
			C76.4,8.1,75.9,8.1,75.4,8.1z"/>
	</g>
</g>
</svg>
