<?xml version="1.0" encoding="UTF-8"?>
<svg width="384px" height="384px" viewBox="0 0 384 384" version="1.1" xmlns="http://www.w3.org/2000/svg" xmlns:xlink="http://www.w3.org/1999/xlink">
    <!-- Generator: Sketch 60.1 (88133) - https://sketch.com -->
    <title>chia备份 2</title>
    <desc>Created with Sketch.</desc>
    <defs>
        <linearGradient x1="50.0004433%" y1="1.42945118%" x2="50.0004433%" y2="99.9997163%" id="linearGradient-1">
            <stop stop-color="#28ACFF" offset="0%"></stop>
            <stop stop-color="#0A56B1" offset="100%"></stop>
        </linearGradient>
    </defs>
    <g id="chia备份-2" stroke="none" stroke-width="1" fill="none" fill-rule="evenodd">
        <g id="Silicoin-Logo-BLUE">
            <rect id="矩形" x="0" y="0" width="384" height="384"></rect>
            <path d="M109.174238,99.0777932 C109.174238,99.0777932 60.358546,159.429199 79.8312499,238.094497 C104.556459,316.649155 170.591286,346.405589 222.184635,352.316115 C263.639831,356.805783 314.953667,345.776686 349.391937,316.247356 C338.030917,326.333098 281.895491,406.081508 163.865517,371.39284 C163.865517,371.39284 66.7349247,344.175312 51.1870422,238.903919 C51.1870422,238.903919 38.9933097,167.267195 109.174238,99.0777932 Z M149.639496,14.5252632 C288.970651,-26.4233174 353.223587,62.397601 366.634361,74.3059982 C325.982764,39.4426375 263.93099,24.0578039 214.993011,29.356895 C154.094226,36.3388842 77.6242658,73.8343209 48.4385025,166.562591 C19.2527396,259.290861 82.3293926,332.249446 82.3293926,332.249446 C-0.516946225,251.761493 19.724417,168.915155 19.724417,168.915155 C38.0848941,44.6485576 149.639496,14.5252632 149.639496,14.5252632 Z M178.551569,89.2715628 C205.344007,89.2715628 225.55043,96.8416931 239.170842,111.970307 C249.763201,123.63413 255.062292,137.207956 255.062292,152.697607 L215.674323,152.697607 C214.783376,144.865434 212.512337,138.855915 208.867029,134.669051 C202.281015,127.011573 191.240272,123.185746 175.750621,123.185746 C166.49177,123.185746 158.746944,124.88029 152.516145,128.257733 C145.039186,132.531945 141.300706,138.675397 141.300706,146.682265 C141.300706,153.355626 143.659093,158.433436 148.375866,161.90405 C151.136052,163.953808 155.718892,165.776462 162.13021,167.377836 L210.200536,178.861141 C226.487962,182.867486 238.460414,188.073407 246.117892,194.484725 C256.442385,203.207844 261.607542,215.716028 261.607542,232.003454 C261.607542,251.854664 255.062292,267.251144 241.977613,278.20454 C227.378908,290.404096 208.06343,296.495139 184.031179,296.495139 C152.428797,296.495139 129.555358,288.575618 115.399215,272.724931 C105.336765,261.43379 100.30554,247.277647 100.30554,230.273971 L139.693509,230.273971 C139.693509,238.286662 142.051896,244.960023 146.768669,250.299876 C153.890415,258.132049 165.37372,262.051047 181.218584,262.051047 C193.057103,262.051047 202.269369,260.496259 208.855382,257.375036 C217.753197,253.193995 222.207927,246.340116 222.207927,236.813398 C222.207927,229.959519 218.958594,224.619665 212.459929,220.788015 C207.830503,218.027829 199.241317,215.180296 186.692371,212.245415 L165.327134,207.307361 C144.410283,202.590587 130.120206,197.605948 122.468552,192.353442 C109.471221,183.362457 102.972555,169.212136 102.972555,149.890835 C102.972555,134.756398 107.648566,121.898824 116.994765,111.300642 C129.898925,96.6145892 150.419801,89.2715628 178.551569,89.2715628 Z M315.262295,94.7453495 L315.262295,291.027176 L274.272952,291.027176 L274.272952,94.7453495 L315.262295,94.7453495 Z M194.891404,41.6729144 L194.891404,72.2096546 L189.400148,72.2096546 L189.400148,46.8788345 L185.545205,46.8788345 L185.545205,41.6729144 L194.891404,41.6729144 Z M221.066584,41.6729144 L221.066584,62.4616561 L224.275155,62.4616561 L224.275155,67.6675762 L221.066584,67.6675762 L221.066584,72.2096546 L215.557859,72.2096546 L215.557859,67.6675762 L202.380009,67.6675762 L202.380009,63.1487909 L216.425512,41.6729144 L221.066584,41.6729144 Z M215.557859,50.9550584 L208.249772,62.4616561 L215.557859,62.4616561 L215.557859,50.9550584 Z" id="3" fill="url(#linearGradient-1)" fill-rule="nonzero"></path>
        </g>
    </g>
</svg>